<?xml version="1.0" encoding="UTF-8"?>
<svg version="1.1" viewBox="0 0 2048 2048" width="1280" height="1280" xmlns="http://www.w3.org/2000/svg">
<path transform="translate(1415,205)" d="m0 0h37l26 4 24 7 24 10 19 11 16 12 14 12 143 143 5 4 1 3 10 1 15 4 13 5 14 7 13 9 10 8 10 10 12 16 8 14 8 19 4 16 2 15v147l-5-2-11-8-44-29-43-29-44-29-43-29-11-7-3-2v-2l-2 1h-272l2 24 4 18 6 18 9 21 10 19 12 20 13 19 9 12 9 11 11 13 16 17 168 168 7 8 12 15 7 10 10 16 12 23 8 19 7 22 5 21 4 29 1 27-1 21-4 27-6 25-7 21-11 25-10 18-12 18-9 12-9 10-7 8-15 15-11 9-13 10-17 11-18 10-17 8-25 9-28 7-19 3-21 2h-286v102l-1 103h203l2 1v135l-203 1-1 90-1 45-1 1h-134l-1-1-1-135-477-1v-136l6-7h2l1-3 85-85h2l2-4h2l2-4h2l2-4 20-20 7-8 70-70h-544l-1-134 3-5 39-39 7-8 168-168 5-6 5-5 3-1 2-4 146-146 11-9 10-9 13-10 19-14 15-10 18-11 21-12 22-11 31-13 28-10 28-8 32-7 24-4 28-3 14-1h56l34 3 33 5 32 7 34 10 25 9 30 13 22 11 23 13 22 14 18 13 13 10 16 13 11 10 8 7 26 26 7 8 12 14 10 13 14 19 8 12 13 21 10 18 11 21 13 30 10 27 9 30 8 34 5 30 3 29 2 36v6l32-5 16-5 15-7 12-7 12-9 12-11 12-15 9-15 7-16 4-13 3-14 1-11v-20l-3-19-6-20-8-16-7-12-8-10-9-10-174-174-7-8-9-10-9-11-12-15-10-14-11-16-12-19-13-23-8-16-9-19-11-29-7-24-5-25-2-19v-180l3-22 6-23 6-16 11-23 9-14 12-16 14-15 7-7 14-11 13-9 15-9 20-9 18-6 23-5zm59 150m12 11m1 1m1 1m2 2m1 1m31 38 4 1zm200 3-2 4 3-2zm-3 4m-816 437v1h5v-1zm271 97m1 1m2 2m1 1m1 1m1 1m1 1m1 1m1 1m1 1m1 1m1 1m1 1m1 1m2 2m1 1m1 1m2 2m1 1m1 1m2 2m1 1m7 8m-261 382-8 7-14 15-59 59-8 7-116 116v1h284v-204l-1-1z" fill="#E84379"/>
<path transform="translate(911,852)" d="m0 0h29l23 2 26 4 29 6 29 9 25 10 29 14 22 13 12 8 19 14 13 11 7 6 1 2 6 3 9 9 5 6 1 3 3 1v2l7 6v3l4 2 12 15 12 17 12 19 7 12 11 23 10 24 8 24 8 32 5 31 1 11 1 29-1 5-198 1-335-1-1-2 7-8 107-107 6-5 7-8 5-5h-142l-8 6-129 129h-215l1-4 77-77h2l2-4 128-128 3-5 53-53 8-7 10-9 11-9 20-15 16-10 19-11 22-11 25-10 21-7 27-7 28-5 24-3h11z" fill="#F9E3EA"/>
<path transform="translate(745,1369)" d="m0 0 2 2-4 5-9 7-39 39-7 8h-2l-2 4-10 10-1 3 6-1 186-1-124 124 283 1 1-122 1-1h134v-8h1v28l-1 103h203l2 1v135l-203 1-1 90-1 45-1 1h-134l-1-1-1-135-477-1v-136l6-7h2l1-3 85-85h2l2-4h2l2-4h2l2-4 20-20 7-8z" fill="#F28FAC"/>
<path transform="translate(1724,411)" d="m0 0 10 1 15 4 13 5 14 7 13 9 10 8 10 10 12 16 8 14 8 19 4 16 2 15v147l-5-2-11-8-44-29-43-29-44-29-43-29-11-7-3-2v-2l-2-1h2l2-5 12-20 16-26 13-21 15-24 15-23 4-6h2v-2l5-5z" fill="#F28FAC"/>
<path transform="translate(752,1092)" d="m0 0h143l-6 7-11 12-8 7-106 106-1 3 348 1h185v-30h1l2 25v7l-654 1h-224l-24-1 1-4 2-1v3l217-1 2-4 128-128z" fill="#F28FAC"/>
<path transform="translate(1027,1706)" d="m0 0h130l4 1v90l-1 45-1 1h-134l-1-1v-135z" fill="#AC2259"/>
<path transform="translate(750,1367)" d="m0 0h191l-1 4-6 5-7 8-61 61-4 1-189 1 1-4 11-11 7-8h2l2-4 24-24h2l2-4 13-13 7-5 2-4v-2z" fill="#AB2159"/>
<path transform="translate(1028,1367)" d="m0 0h131l1 1v79l-6 1h-128l-1 119h-1v-199z" fill="#AB2159"/>
<path transform="translate(1422,341)" d="m0 0h22l15 4 11 6 4 3v2l4 1 9 8 6 5 7 8 24 24 5 7-3 1-72 1h-40l-48-1-1-1v-11l6-18 8-13 12-12 13-8 8-3z" fill="#F9E3EA"/>
<path transform="translate(1160,1776)" d="m0 0h1v21l-1 45-1 1h-134l-1-2 1-52h135z" fill="#F28FAC"/>
<path transform="translate(745,1369)" d="m0 0 2 2-4 5-9 7-39 39-7 8h-2l-2 4-10 10-1 3 6-1 186-1-3 3h-191v-4l9-10z" fill="#E84379"/>
<path transform="translate(610,1012)" d="m0 0 1 3-174 174v-3l86-86 5-6h2l2-4z" fill="#F28FAC"/>
<path transform="translate(745,1369)" d="m0 0 2 2-4 5-9 7-39 39-7 8h-2l-2 4-10 10-2-1 7-8z" fill="#EC6892"/>
<path transform="translate(904,1403)" d="m0 0 3 1-20 20-1-3 4-2 2-4h2l2-4h2l2-4h2z" fill="#EB5F8C"/>
<path transform="translate(688,1426)" d="m0 0h2l-2 4h-2l-2 4-10 10-2-1 7-8z" fill="#EB5A89"/>
<path transform="translate(708,1406)" d="m0 0h2l-2 4-8 7-6 7-5 2 6-7z" fill="#EC6590"/>
<path transform="translate(672,1444)" d="m0 0 1 3 6-1h12v1l-7 1h-13l-1-3z" fill="#E8457A"/>
<path transform="translate(745,1369)" d="m0 0 2 2-4 5-4 3-3-1z" fill="#EB5B89"/>
</svg>
